<svg id="svg" version="1.1" xmlns="http://www.w3.org/2000/svg" style="display: block;" viewBox="0 0 514 514"><path d="M0 0 C169.62 0 339.24 0 514 0 C514 169.62 514 339.24 514 514 C344.38 514 174.76 514 0 514 C0 344.38 0 174.76 0 0 Z " transform="translate(0,0)" style="fill: #000000;"/><path d="M0 0 C163.68 0 327.36 0 496 0 C496 24.75 496 49.5 496 75 C332.32 75 168.64 75 0 75 C0 50.25 0 25.5 0 0 Z " transform="translate(9,9)" style="fill: #000000;"/><path d="M0 0 C169.62 0 339.24 0 514 0 C514 169.62 514 339.24 514 514 C344.38 514 174.76 514 0 514 C0 344.38 0 174.76 0 0 Z M9 9 C9 33.75 9 58.5 9 84 C172.68 84 336.36 84 505 84 C505 59.25 505 34.5 505 9 C341.32 9 177.64 9 9 9 Z M9 93 C9 228.96 9 364.92 9 505 C172.68 505 336.36 505 505 505 C505 369.04 505 233.08 505 93 C341.32 93 177.64 93 9 93 Z " transform="translate(0,0)" style="fill: #232F3E;"/><path d="M0 0 C0.8588681 -0.0049649 1.71773621 -0.00992981 2.60263062 -0.01504517 C5.44692788 -0.02966244 8.29116937 -0.03646824 11.13549805 -0.04199219 C13.11223858 -0.0477442 15.0889791 -0.05350193 17.0657196 -0.05926514 C21.21259827 -0.06977403 25.35945755 -0.07561736 29.50634766 -0.07910156 C34.81597344 -0.08458462 40.12534257 -0.10860914 45.43488789 -0.13707352 C49.5192896 -0.15571222 53.60362965 -0.16090617 57.6880703 -0.16243744 C59.6452595 -0.16546194 61.60244767 -0.17348364 63.55959511 -0.18662262 C66.30034439 -0.20370802 69.04046884 -0.20179672 71.78125 -0.1953125 C72.58718094 -0.20452728 73.39311188 -0.21374207 74.22346497 -0.22323608 C79.06468589 -0.18741981 82.38726821 0.48335207 86.5847168 3.16113281 C88.56517547 7.12205015 88.13197876 11.85303573 87.5847168 16.16113281 C85.5847168 18.84863281 85.5847168 18.84863281 82.5847168 20.16113281 C79.90564056 20.32921539 77.27252425 20.21896474 74.5847168 20.16113281 C74.59968035 30.70689675 74.64166773 41.25219004 74.71680737 51.7977066 C74.75088937 56.69609018 74.77615782 61.5941681 74.78027344 66.49267578 C74.78459709 71.23274828 74.81339146 75.97213345 74.85814857 80.71199036 C74.87099504 82.50734939 74.87547769 84.30279123 74.87087059 86.09819031 C74.83899485 102.31380181 78.00698891 115.57395949 85.9597168 129.91113281 C86.43505859 130.79728271 86.91040039 131.68343262 87.40014648 132.59643555 C90.58046237 138.48389574 93.92920271 144.24735967 97.5378418 149.88378906 C98.5847168 152.16113281 98.5847168 152.16113281 98.5690918 154.24707031 C95.71769437 159.7914542 87.43676759 163.07718254 81.7722168 165.03613281 C64.86152712 170.20419658 48.97031032 165.38828022 32.69555664 160.52685547 C13.42038133 154.77546506 -6.39852394 149.65283542 -26.4152832 155.16113281 C-25.09526366 150.79909962 -23.38808757 147.07092107 -21.11450195 143.12597656 C-20.46674805 141.98580078 -19.81899414 140.845625 -19.15161133 139.67089844 C-18.1347744 137.89465472 -17.11518384 136.12009672 -16.09130859 134.34790039 C-5.51427291 115.98946451 -2.14730407 100.01574022 -2.0012207 79.14550781 C-1.9824705 77.43629055 -1.96289435 75.72708216 -1.9425354 74.0178833 C-1.89161456 69.5596037 -1.85177687 65.10129421 -1.81439209 60.6428833 C-1.77409865 56.07727919 -1.72312308 51.51179505 -1.6730957 46.94628906 C-1.57681185 38.01798841 -1.49225787 29.08961938 -1.4152832 20.16113281 C-2.02944092 20.18361084 -2.64359863 20.20608887 -3.27636719 20.22924805 C-4.48788452 20.25547241 -4.48788452 20.25547241 -5.72387695 20.28222656 C-6.52365967 20.30470459 -7.32344238 20.32718262 -8.14746094 20.3503418 C-10.4152832 20.16113281 -10.4152832 20.16113281 -13.4777832 18.22363281 C-16.07711426 14.11501275 -16.36020156 10.90290495 -15.4152832 6.16113281 C-11.49044485 -0.33515136 -6.9972907 0.00963294 0 0 Z " transform="translate(277.415283203125,127.8388671875)" style="fill: #000000;"/><path d="M0 0 C0.8946698 -0.0049649 1.7893396 -0.00992981 2.71112061 -0.01504517 C5.67566698 -0.02966814 8.64015979 -0.03646999 11.60473633 -0.04199219 C13.66636659 -0.04774473 15.72799684 -0.05350245 17.78962708 -0.05926514 C22.1164271 -0.06977634 26.44320854 -0.07561783 30.77001953 -0.07910156 C36.30364455 -0.08457819 41.83702251 -0.10858802 47.37057018 -0.13707352 C51.63176683 -0.15573717 55.8929045 -0.16090755 60.15413857 -0.16243744 C62.19340677 -0.16545745 64.2326741 -0.17346393 66.27190208 -0.18662262 C69.13197733 -0.20375647 71.99145616 -0.20178463 74.8515625 -0.1953125 C75.68770584 -0.20452728 76.52384918 -0.21374207 77.3853302 -0.22323608 C83.24569426 -0.18188007 89.26887317 0.46272223 93.81387615 4.5777092 C98.0073347 9.41423244 98.44457484 13.23774535 98.56176758 19.47363281 C98.6178418 21.41689453 98.6178418 21.41689453 98.67504883 23.39941406 C98.05863988 28.8453023 95.69917861 31.81996511 91.74926758 35.47363281 C89.41283795 37.05072281 87.9393354 37.58550389 85.24926758 38.16113281 C85.2875269 47.32450495 85.34717851 56.48742818 85.43317032 65.65047741 C85.47246072 69.90656629 85.50473855 74.16245399 85.52026367 78.41870117 C85.53555312 82.5362763 85.57021159 86.65329759 85.6175766 90.77062416 C85.63226508 92.33121198 85.64030128 93.89187892 85.64115143 95.45253563 C85.65627493 109.31124869 88.49259287 120.83277705 95.18676758 133.03613281 C95.66130371 133.92196045 96.13583984 134.80778809 96.62475586 135.72045898 C100.72763974 143.32991608 104.98964804 150.85142472 109.27050781 158.36181641 C113.19044082 165.24607974 116.99662243 172.1844239 120.74926758 179.16113281 C124.99307581 187.04731988 129.3198369 194.87768611 133.74926758 202.66113281 C138.74432697 211.43850882 143.5884252 220.2877406 148.37426758 229.18066406 C152.08372499 236.05564403 155.8856248 242.87173739 159.74926758 249.66113281 C164.80315082 258.54373859 169.71908176 267.49288686 174.56103516 276.49267578 C177.07894758 281.16918438 179.61252905 285.83351448 182.21801758 290.46191406 C182.67861572 291.28071045 183.13921387 292.09950684 183.61376953 292.94311523 C184.46451103 294.44977074 185.31947766 295.95405249 186.1796875 297.45532227 C191.31734502 306.55615893 193.06300637 315.63823895 190.56176758 326.01269531 C186.71193582 336.37515913 179.59051139 344.55605773 169.62426758 349.45019531 C162.1791484 352.53017021 155.69425797 353.30993668 147.70007324 353.30830383 C146.2495954 353.31381887 146.2495954 353.31381887 144.76981497 353.31944531 C141.52663233 353.33046624 138.28348175 353.33432333 135.0402832 353.33813477 C132.71583963 353.34440069 130.39139705 353.35104761 128.06695557 353.35804749 C120.42981665 353.37907757 112.79267756 353.38944994 105.15551758 353.39941406 C102.52426645 353.40346222 99.89301544 353.40757916 97.26176453 353.41176414 C86.31388899 353.42863222 75.36601551 353.44326601 64.41812897 353.45051289 C61.57928974 353.4524226 58.74045052 353.45434296 55.90161133 353.45629883 C55.19608256 353.45678257 54.49055378 353.45726631 53.76364535 353.45776471 C42.34634304 353.46605683 30.92914577 353.49138094 19.51188928 353.52387951 C7.77422732 353.55701602 -3.96338138 353.57496764 -15.70109034 353.57815713 C-22.28494317 353.58050455 -28.86862994 353.58942514 -35.45243835 353.6146183 C-41.65112492 353.63795439 -47.84953675 353.64210979 -54.04825592 353.63185692 C-56.31651475 353.63136278 -58.58478735 353.63764711 -60.85300446 353.65141296 C-77.10167258 353.7444648 -91.66728293 353.14878869 -104.75073242 342.16113281 C-111.77995905 334.56070867 -115.64971188 326.56975471 -116.18823242 316.22363281 C-115.71441299 305.93210507 -110.17871881 296.73440066 -105.31323242 287.91113281 C-104.39006226 286.21657959 -104.39006226 286.21657959 -103.44824219 284.48779297 C-98.90675622 276.18100438 -94.26195077 267.9336549 -89.57714844 259.70703125 C-85.71096718 252.90592585 -81.95775559 246.05013341 -78.25073242 239.16113281 C-73.48744196 230.31001323 -68.59707577 221.54136596 -63.62573242 212.80566406 C-59.74636276 205.97014011 -55.97532443 199.0820694 -52.25073242 192.16113281 C-48.00672597 184.27503429 -43.67972721 176.44484139 -39.25073242 168.66113281 C-33.06066941 157.77085989 -27.02998424 146.80067586 -21.13549805 135.74755859 C-19.93271012 133.50102557 -18.71199555 131.26563397 -17.48510742 129.03222656 C-10.66015221 116.19959018 -9.3016617 103.470073 -9.23901367 89.13769531 C-9.22211491 87.65553352 -9.20395797 86.17338559 -9.18461609 84.69125366 C-9.13767264 80.8412714 -9.10750718 76.99134533 -9.08117676 73.14117432 C-9.05108575 69.19198498 -9.0046558 65.24298865 -8.9597168 61.29394531 C-8.87431943 53.5831048 -8.80669641 45.87224921 -8.75073242 38.16113281 C-9.86528809 37.86456787 -10.97984375 37.56800293 -12.12817383 37.26245117 C-15.7205079 36.17032157 -16.89234381 35.59248835 -19.12573242 32.72363281 C-19.6078418 32.12679687 -20.08995117 31.52996094 -20.58666992 30.91503906 C-24.01623556 25.74767339 -23.24082972 19.08430877 -22.75073242 13.16113281 C-21.49128376 8.32060119 -19.49647757 5.29762673 -15.18823242 2.72363281 C-9.92026475 0.32910205 -5.69996807 0.00752928 0 0 Z M-11.75073242 12.16113281 C-14.44063571 16.19598775 -14.53067124 19.42341933 -13.75073242 24.16113281 C-12.00073242 27.41113281 -12.00073242 27.41113281 -8.75073242 29.16113281 C-6.459353 29.39459474 -6.459353 29.39459474 -4.05932617 29.28222656 C-3.25164795 29.26474365 -2.44396973 29.24726074 -1.61181641 29.22924805 C-0.99765869 29.20677002 -0.38350098 29.18429199 0.24926758 29.16113281 C0.16449978 38.99356384 0.06947872 48.82583903 -0.03825951 58.65804672 C-0.08798455 63.2246376 -0.13431459 67.79120797 -0.17260742 72.35791016 C-0.20976341 76.77358394 -0.25620096 81.18907546 -0.30879593 85.60459137 C-0.32718026 87.28045673 -0.34234557 88.95636093 -0.35407639 90.63228607 C-0.54696354 117.26175218 -9.58972696 136.62120263 -23.21557617 159.26269531 C-23.72217773 160.21917969 -24.2287793 161.17566406 -24.75073242 162.16113281 C-24.42073242 162.82113281 -24.09073242 163.48113281 -23.75073242 164.16113281 C-22.61635742 163.83113281 -21.48198242 163.50113281 -20.31323242 163.16113281 C3.61575021 158.09425396 28.93150845 167.24458388 51.48632812 174.39257812 C65.79067003 178.37155385 80.10496621 176.34681228 93.11254883 169.43457031 C95.69712233 167.8942212 98.01315447 166.17363461 100.24926758 164.16113281 C99.66296528 160.2738921 98.50246204 157.48115963 96.51879883 154.09863281 C95.68904541 152.66535645 95.68904541 152.66535645 94.8425293 151.203125 C94.25487793 150.19926758 93.66722656 149.19541016 93.06176758 148.16113281 C82.29179937 129.40809765 76.81251583 114.58840523 76.73754883 92.93066406 C76.72067576 91.08549322 76.70252205 89.24033369 76.68315125 87.39518738 C76.63593018 82.57355281 76.60594123 77.75196413 76.57971191 72.93017578 C76.54976461 67.99600163 76.50328345 63.06198514 76.45825195 58.12792969 C76.37253674 48.47241368 76.30505117 38.81686494 76.24926758 29.16113281 C78.13645508 29.20173828 78.13645508 29.20173828 80.06176758 29.24316406 C83.10171903 29.30857285 84.35813339 29.11350402 87.24926758 27.84863281 C90.0030382 24.14825354 89.88398524 21.25416945 89.67895508 16.73144531 C89.40838741 13.99416036 89.40838741 13.99416036 87.43676758 11.53613281 C83.04108447 8.773132 78.83325399 9.00689085 73.81811523 9 C72.95764084 8.9950351 72.09716644 8.99007019 71.21061707 8.98495483 C68.3615133 8.97033909 65.51246519 8.96353245 62.66333008 8.95800781 C60.68419391 8.95225621 58.70505776 8.94649848 56.72592163 8.94073486 C52.5748468 8.93022678 48.42379134 8.92438274 44.27270508 8.92089844 C38.95401309 8.91541179 33.63557685 8.89137926 28.3169651 8.86292648 C24.22831474 8.84430264 20.13972604 8.83909465 16.05103683 8.83756256 C14.09023006 8.83453532 12.12942438 8.8265044 10.16865921 8.81337738 C7.42531107 8.79632102 4.68258864 8.79819603 1.93920898 8.8046875 C0.72491966 8.79086533 0.72491966 8.79086533 -0.51390076 8.77676392 C-5.10669803 8.81080447 -8.12646531 9.26220789 -11.75073242 12.16113281 Z M-35.75073242 182.16113281 C-38.52818396 186.02931598 -40.7014264 190.11808263 -42.87573242 194.34863281 C-43.50883544 195.53866865 -44.14431291 196.72744388 -44.78198242 197.91503906 C-46.1136191 200.40010773 -47.43445571 202.89047388 -48.74780273 205.38525391 C-51.66906413 210.91627284 -54.71176441 216.38000243 -57.746521 221.84927368 C-59.09389324 224.28028437 -60.43519776 226.71461894 -61.77651978 229.14897156 C-65.91696441 236.66283489 -70.0807497 244.1636214 -74.25073242 251.66113281 C-80.92149689 263.65912712 -87.58405936 275.661493 -94.18823242 287.69628906 C-96.26137766 291.47291945 -98.35381659 295.23458094 -100.50073242 298.96972656 C-105.22171827 307.26437499 -108.25555887 314.10854275 -105.87573242 323.66113281 C-102.72640505 331.66212667 -96.65640343 337.63835123 -88.93823242 341.22363281 C-84.47154675 343.03479973 -80.45150764 344.28403509 -75.61639214 344.29256058 C-74.79599697 344.29640172 -73.9756018 344.30024287 -73.13034618 344.30420041 C-72.23444589 344.30333393 -71.33854561 344.30246745 -70.41549683 344.30157471 C-68.98150156 344.30603139 -68.98150156 344.30603139 -67.51853669 344.31057811 C-64.30670119 344.31926785 -61.09490296 344.3207736 -57.88305664 344.32226562 C-55.58344951 344.32689366 -53.28384314 344.3319183 -50.98423767 344.33731079 C-44.72987062 344.35043956 -38.4755143 344.35688087 -32.22113562 344.36132145 C-28.31336796 344.36425185 -24.40560324 344.36835664 -20.49783707 344.37282562 C-9.6718068 344.38493553 1.15422023 344.39531681 11.98025703 344.39870071 C13.01935584 344.39903006 13.01935584 344.39903006 14.07944655 344.39936607 C15.12099522 344.39969348 15.12099522 344.39969348 16.18358529 344.40002751 C17.59057053 344.40047097 18.99755577 344.40091754 20.40454102 344.40136719 C21.45140506 344.40169933 21.45140506 344.40169933 22.51941787 344.40203819 C33.81915927 344.40598323 45.11883607 344.42342827 56.41855253 344.44672671 C68.02847854 344.47047083 79.63836898 344.48264629 91.24831951 344.48406863 C97.76331295 344.48511633 104.27821531 344.49101655 110.79318619 344.50888824 C116.9245142 344.52537988 123.05568277 344.52751899 129.18702507 344.51874924 C131.4339624 344.51797941 133.68090834 344.52231435 135.92782402 344.53220749 C139.00278144 344.5449493 142.07717607 344.53903774 145.15213013 344.52862549 C146.47590406 344.5407101 146.47590406 344.5407101 147.8264209 344.55303884 C158.54479434 344.46855451 167.12926555 341.1561612 175.24926758 334.16113281 C180.5299565 328.45996749 183.01741342 321.87911116 182.80004883 314.14550781 C181.6904827 308.13339065 178.51349371 302.90958732 175.59301758 297.60595703 C174.13309003 294.9497589 172.70552506 292.27762523 171.28051758 289.60253906 C165.38612579 278.58088991 159.30649196 267.67036388 153.12548828 256.80737305 C148.68096733 248.97724944 144.39088257 241.06971068 140.12426758 233.14160156 C135.9017787 225.31578684 131.54534501 217.57279244 127.14624023 209.84521484 C122.47326898 201.61323602 117.95331609 193.30251542 113.47387695 184.96386719 C112.96405273 184.01576172 112.45422852 183.06765625 111.92895508 182.09082031 C111.48277832 181.2579248 111.03660156 180.4250293 110.5769043 179.56689453 C109.19348287 177.0600474 107.73652633 174.60756174 106.24926758 172.16113281 C103.06467251 173.25583737 100.45287851 174.65933521 97.68676758 176.53613281 C84.46349576 185.01709273 67.54718292 185.8831014 52.43676758 183.16113281 C45.13579573 181.55073817 38.02624081 179.32807029 30.87426758 177.16113281 C8.32077937 170.33152272 -16.98642076 163.41367028 -35.75073242 182.16113281 Z " transform="translate(275.750732421875,118.8388671875)" style="fill: #232F3E;"/><path d="M0 0 C5.15252412 5.69581748 4.64872265 14.26628379 4.921875 21.6015625 C4.97988281 22.8999707 4.97988281 22.8999707 5.0390625 24.22460938 C5.13207981 26.32912609 5.21550169 28.4340634 5.296875 30.5390625 C5.91103271 30.6311499 6.52519043 30.7232373 7.15795898 30.81811523 C15.909717 32.19343309 24.38877234 35.58501117 32.296875 39.5390625 C31.17931234 43.40754864 30.26814208 45.82829007 27.296875 48.5390625 C26.471875 48.15234375 25.646875 47.765625 24.796875 47.3671875 C16.78065565 43.75273145 8.97479505 41.24131127 0.40234375 39.30078125 C-2.703125 38.5390625 -2.703125 38.5390625 -3.703125 37.5390625 C-3.93267599 35.32371626 -4.09877285 33.10174003 -4.23828125 30.87890625 C-4.28125839 30.21443985 -4.32423553 29.54997345 -4.36851501 28.8653717 C-4.50523344 26.73601936 -4.63549538 24.60632668 -4.765625 22.4765625 C-4.85699798 21.03578035 -4.94878939 19.59502466 -5.04101562 18.15429688 C-5.2665808 14.6161801 -5.48635596 11.07773029 -5.703125 7.5390625 C-7.14594849 7.66752563 -7.14594849 7.66752563 -8.61791992 7.79858398 C-12.25033801 8.12179076 -15.88284663 8.44397049 -19.51538086 8.76586914 C-21.07562637 8.90426896 -22.6358485 9.04293261 -24.19604492 9.18188477 C-26.46266406 9.38370203 -28.72936266 9.58460053 -30.99609375 9.78515625 C-31.73665009 9.85100922 -32.47720642 9.91686218 -33.24020386 9.98471069 C-38.91909116 10.48436622 -44.60157766 10.90425679 -50.2902832 11.27758789 C-52.71184274 11.39831823 -52.71184274 11.39831823 -54.703125 12.5390625 C-54.59484375 14.15361328 -54.59484375 14.15361328 -54.484375 15.80078125 C-53.90874851 24.73273954 -53.5629774 33.58518803 -53.703125 42.5390625 C-55.22679687 43.17521484 -55.22679687 43.17521484 -56.78125 43.82421875 C-64.57268476 47.12676887 -71.943189 50.60258155 -79.15234375 55.05859375 C-81.61395181 56.48730654 -84.03705591 57.55429824 -86.703125 58.5390625 C-87.404375 57.89839844 -88.105625 57.25773437 -88.828125 56.59765625 C-90.79479893 54.80466956 -92.76440458 53.0154683 -94.73828125 51.23046875 C-96.53269614 49.60738857 -98.30870985 47.97138906 -100.07421875 46.31640625 C-100.75613281 45.68863281 -101.43804687 45.06085938 -102.140625 44.4140625 C-102.73746094 43.85460937 -103.33429688 43.29515625 -103.94921875 42.71875 C-105.90401605 41.16699097 -105.90401605 41.16699097 -109.703125 41.5390625 C-111.3604143 42.88710884 -111.3604143 42.88710884 -112.76953125 44.80078125 C-113.61378662 45.85217285 -113.61378662 45.85217285 -114.47509766 46.92480469 C-115.06597168 47.68438477 -115.6568457 48.44396484 -116.265625 49.2265625 C-117.51348318 50.7884317 -118.76219122 52.34962225 -120.01171875 53.91015625 C-120.63159668 54.69116699 -121.25147461 55.47217773 -121.89013672 56.27685547 C-124.47413926 59.50111719 -127.14278805 62.64911943 -129.828125 65.7890625 C-131.45813245 67.70147245 -133.08368635 69.61769461 -134.703125 71.5390625 C-135.48429687 72.40015625 -136.26546875 73.26125 -137.0703125 74.1484375 C-138.94496558 76.33292183 -138.94496558 76.33292183 -138.47583008 78.51098633 C-137.16021184 81.96401656 -134.22518124 84.08366884 -131.515625 86.4765625 C-130.95037109 86.98896484 -130.38511719 87.50136719 -129.80273438 88.02929688 C-126.18018158 91.2949888 -122.46692561 94.43778218 -118.703125 97.5390625 C-119.39313059 101.88692905 -120.89740848 105.78461094 -122.515625 109.8515625 C-125.66199316 117.95578659 -127.73745523 126.07156196 -129.703125 134.5390625 C-144.058125 135.5290625 -144.058125 135.5290625 -158.703125 136.5390625 C-157.383125 153.3690625 -156.063125 170.1990625 -154.703125 187.5390625 C-145.133125 187.2090625 -135.563125 186.8790625 -125.703125 186.5390625 C-124.3625 189.7771875 -123.021875 193.0153125 -121.640625 196.3515625 C-118.60640742 203.60170452 -115.51451204 210.11894873 -110.72265625 216.3828125 C-109.703125 218.5390625 -109.703125 218.5390625 -110.26171875 221.01953125 C-111.88217194 223.85203073 -113.70590579 225.98586745 -115.953125 228.3515625 C-118.83143821 231.47672134 -121.68078576 234.58935242 -124.328125 237.9140625 C-125.05902344 238.82285156 -125.05902344 238.82285156 -125.8046875 239.75 C-126.86090207 241.49724038 -126.86090207 241.49724038 -126.63671875 243.49609375 C-125.33849647 246.33697346 -123.50379268 247.82032066 -121.140625 249.8515625 C-120.23054688 250.64304687 -119.32046875 251.43453125 -118.3828125 252.25 C-117.49851563 253.00539063 -116.61421875 253.76078125 -115.703125 254.5390625 C-114.38913312 255.68318471 -113.07649826 256.82886848 -111.765625 257.9765625 C-111.13011719 258.52828125 -110.49460938 259.08 -109.83984375 259.6484375 C-106.30854811 262.77302085 -102.86488735 265.99401984 -99.4140625 269.20703125 C-96.61875686 271.61163855 -93.80660364 273.55957099 -90.703125 275.5390625 C-85.06670183 269.41696114 -79.70225091 263.19384747 -74.703125 256.5390625 C-70.78909551 257.80847747 -68.91239627 259.05073944 -66.703125 262.5390625 C-71.10945882 268.10236665 -75.56155025 273.62742759 -80.078125 279.1015625 C-80.91085938 280.11347656 -81.74359375 281.12539063 -82.6015625 282.16796875 C-85.36873078 285.29003408 -86.12620172 285.46943383 -90.328125 285.9765625 C-99.59462056 285.74490011 -107.02438093 275.62623118 -113.375 269.65234375 C-115.86147211 267.31658797 -118.37629512 265.02545754 -120.953125 262.7890625 C-121.54996094 262.26957031 -122.14679688 261.75007813 -122.76171875 261.21484375 C-124.268949 259.91383414 -125.7834235 258.6212149 -127.30078125 257.33203125 C-128.19667969 256.55472656 -129.09257812 255.77742188 -130.015625 254.9765625 C-131.24732422 253.92275391 -131.24732422 253.92275391 -132.50390625 252.84765625 C-136.03085054 249.14530443 -137.69150237 246.25340064 -137.7265625 241.08203125 C-136.44696502 236.65227965 -134.41315442 234.18576738 -131.328125 230.8515625 C-129.87369361 229.22100856 -128.42152766 227.58846219 -126.96972656 225.95556641 C-125.91916877 224.78067506 -124.85573608 223.61731088 -123.7890625 222.45703125 C-122.50804876 220.58090989 -122.50804876 220.58090989 -122.76953125 218.296875 C-124.05983496 214.48535024 -125.80176425 210.98763614 -127.640625 207.4140625 C-128.18106445 206.34091797 -128.18106445 206.34091797 -128.73242188 205.24609375 C-130.27246232 202.21139159 -131.81056741 199.37789889 -133.703125 196.5390625 C-134.51394531 196.61125 -135.32476562 196.6834375 -136.16015625 196.7578125 C-139.67276682 197.05223388 -143.18615703 197.30256357 -146.703125 197.5390625 C-148.23839844 197.65894531 -148.23839844 197.65894531 -149.8046875 197.78125 C-154.36392212 197.99476787 -157.64235731 198.14190844 -161.328125 195.2265625 C-165.0816214 190.97918499 -165.03860591 186.7401461 -165.45703125 181.3125 C-165.52220444 180.49141754 -165.58737762 179.67033508 -165.65452576 178.82437134 C-165.79176876 177.07773044 -165.92697151 175.33092823 -166.06030273 173.58398438 C-166.2611698 170.97199597 -166.47292115 168.36105378 -166.68554688 165.75 C-167.33579746 157.53666822 -167.86997642 149.31656819 -168.04296875 141.078125 C-168.08509239 140.04273087 -168.08509239 140.04273087 -168.12806702 138.98641968 C-168.15688899 135.50961639 -167.75670741 133.62554742 -165.91040039 130.64550781 C-160.95653967 125.91794335 -152.75366165 126.06484871 -146.203125 125.4140625 C-145.38070312 125.32769531 -144.55828125 125.24132812 -143.7109375 125.15234375 C-141.70885974 124.94282398 -139.70606103 124.74021206 -137.703125 124.5390625 C-137.44917969 123.56066406 -137.19523437 122.58226562 -136.93359375 121.57421875 C-136.58609301 120.24995918 -136.23842784 118.92574276 -135.890625 117.6015625 C-135.72498047 116.96154297 -135.55933594 116.32152344 -135.38867188 115.66210938 C-134.0394494 110.54524678 -132.42317796 105.54265523 -130.703125 100.5390625 C-132.14945313 99.20101562 -132.14945313 99.20101562 -133.625 97.8359375 C-134.90107985 96.65368705 -136.1771194 95.47139309 -137.453125 94.2890625 C-138.08734375 93.70253906 -138.7215625 93.11601562 -139.375 92.51171875 C-140.60818435 91.36845409 -141.83802759 90.22157309 -143.06420898 89.07080078 C-144.39390379 87.82806204 -145.74297651 86.60607991 -147.09765625 85.390625 C-149.63382257 82.46570326 -149.68811186 80.28082257 -149.52734375 76.5 C-147.66515953 69.81025764 -142.2038088 64.65322749 -137.703125 59.5390625 C-136.67211135 58.33405315 -135.64343938 57.12703606 -134.6171875 55.91796875 C-132.61266604 53.56057703 -130.59482946 51.2157505 -128.56640625 48.87890625 C-125.1772629 44.95648624 -121.94857008 40.91382716 -118.73828125 36.84375 C-115.47108508 33.14385414 -112.94378659 30.81714182 -108.078125 29.7265625 C-100.42804711 30.0887821 -94.18213456 37.85968091 -89.328125 43.1640625 C-87.0305549 45.7948192 -87.0305549 45.7948192 -84.58203125 45.47265625 C-80.45056726 44.13287349 -76.80630456 42.07606526 -73.015625 39.9765625 C-71.49290862 39.13824162 -69.96825709 38.30342312 -68.44140625 37.47265625 C-67.77149658 37.10197021 -67.10158691 36.73128418 -66.41137695 36.34936523 C-64.703125 35.5390625 -64.703125 35.5390625 -62.703125 35.5390625 C-62.85265625 34.91902344 -63.0021875 34.29898438 -63.15625 33.66015625 C-63.9166697 29.3203324 -64.19066479 24.99617064 -64.453125 20.6015625 C-64.52144531 19.72048828 -64.58976562 18.83941406 -64.66015625 17.93164062 C-64.96888269 12.64766893 -64.79846243 9.07557768 -61.703125 4.5390625 C-58.15369574 2.17277633 -55.20420994 1.93546283 -51.078125 1.5390625 C-50.30122314 1.45930176 -49.52432129 1.37954102 -48.72387695 1.29736328 C-46.05143817 1.03056147 -43.37780676 0.78234057 -40.703125 0.5390625 C-39.68557129 0.44592773 -38.66801758 0.35279297 -37.61962891 0.25683594 C-4.95053681 -2.67557914 -4.95053681 -2.67557914 0 0 Z " transform="translate(211.703125,150.4609375)" style="fill: #232F3E;"/><path d="M0 0 C5.99260894 3.11747855 9.66453168 8.05018218 13.0625 13.75 C15.26131356 21.51051843 15.19027509 29.21424621 11.453125 36.46484375 C8.24629246 41.37884302 3.98258266 46.03368661 -1.671875 48.05859375 C-10.08309112 49.74381967 -18.24208781 49.46324372 -25.75 45.12890625 C-29.24415 42.45048612 -31.65396448 39.27425969 -33.875 35.5 C-34.24753906 34.90574219 -34.62007813 34.31148438 -35.00390625 33.69921875 C-37.3600016 27.75087041 -36.73819992 19.57941554 -35.03515625 13.50390625 C-31.93231792 6.64005176 -27.22937793 2.59067814 -20.515625 -0.6328125 C-14.05532122 -2.75439155 -6.33232086 -2.45894246 0 0 Z " transform="translate(301.875,358.5)" style="fill: #232F3E;"/><path d="M0 0 C1.69623251 1.29551181 3.37411094 2.61723454 5 4 C4.652889 7.23970264 4.02385018 7.97998484 1.44921875 10.140625 C0.64097656 10.75421875 -0.16726562 11.3678125 -1 12 C-1.67804688 11.54109375 -2.35609375 11.0821875 -3.0546875 10.609375 C-15.42998352 2.45059258 -27.03918699 -1.84252733 -41.9921875 0.4609375 C-55.13544208 3.362695 -66.26028505 10.04619149 -73.75 21.3125 C-82.05245396 35.17513953 -84.89323526 49.23202701 -81.28125 65.171875 C-77.25280659 78.57686774 -68.95850279 89.93148357 -56.83203125 97.03515625 C-54.61227005 98.20419893 -52.3726864 99.18438905 -50 100 C-50.55728913 103.34373475 -51.35173889 106.03312999 -53 109 C-67.02279666 105.30979035 -77.74858732 94.95019609 -84.984375 82.80078125 C-89.51680078 74.64453281 -92.5175415 65.32753099 -93 56 C-93.07541016 55.05253906 -93.07541016 55.05253906 -93.15234375 54.0859375 C-93.91337852 37.83023487 -88.15677778 21.70162892 -77.5625 9.4375 C-55.73343035 -12.80203079 -26.56533005 -15.42182081 0 0 Z " transform="translate(225,251)" style="fill: #232F3E;"/><path d="M0 0 C5.54332959 3.28665053 10.31309262 8.17697936 12.1875 14.4375 C13.37538778 21.18206285 12.35148768 27.64594084 9.046875 33.64453125 C5.05129598 39.09826697 -0.6728457 42.46970882 -7.3125 43.5 C-13.89009788 43.57560457 -19.97541562 42.52281307 -25.3125 38.5 C-31.40198907 31.91963709 -32.6847103 26.68642697 -32.5859375 17.796875 C-32.05344608 11.3765499 -29.57835327 7.40731073 -24.875 3.125 C-18.02872238 -2.56169928 -8.1508384 -3.59783101 0 0 Z " transform="translate(365.3125,392.5)" style="fill: #232F3E;"/><path d="M0 0 C4.30798511 3.75243047 5.84234078 7.86054624 6.6640625 13.44140625 C7.06662957 19.90211676 5.50868077 24.39350304 1.3515625 29.31640625 C-4.53724091 34.22374243 -8.50793395 35.04889111 -16.109375 34.8515625 C-21.90752917 34.21448136 -25.30929074 31.79027024 -29.1484375 27.44140625 C-33.1835407 21.86346948 -32.74169838 16.1567448 -32.2734375 9.50390625 C-30.54880517 4.02566238 -26.96181763 0.64570455 -22.2734375 -2.49609375 C-14.41499246 -5.84320923 -6.93551484 -4.84933408 0 0 Z " transform="translate(367.2734375,332.49609375)" style="fill: #232F3E;"/><path d="M0 0 C4.83898361 1.73224316 8.16508025 4.74762037 11 9 C12.44865941 13.34597823 12.88893053 17.60375247 11.28125 21.9375 C8.81486384 26.55202894 5.65879762 29.67060119 1 32 C-3.95482094 32.54360446 -7.87125852 32.56437074 -12.375 30.3125 C-15.96775803 27.14745126 -19.69412413 23.78798338 -20.23828125 18.828125 C-20.40659218 12.98153463 -20.02425335 9.56807137 -16 5 C-10.65336668 0.28987065 -7.04184942 -0.83116911 0 0 Z " transform="translate(295,366)" style="fill: #000000;"/><path d="M0 0 C5.05215523 2.66906314 8.16941171 5.33025194 9.875 10.8125 C10.07290294 15.85902494 8.26864105 19.43534271 5.125 23.3125 C1.58857016 26.12084135 -0.82993614 27 -5.375 27 C-9.98668701 25.72781048 -12.75664958 23.45407658 -16 20 C-17.73704155 16.5259169 -17.46041616 12.79843331 -17 9 C-13.36295323 1.72590645 -8.18883974 -1.46114591 0 0 Z " transform="translate(359,400)" style="fill: #000000;"/><path d="M0 0 C1.88034633 2.92498318 2.06657978 5.30320685 2.125 8.75 C0.14561533 12.49669241 -1.34516053 14.39677369 -4.875 16.75 C-11.82177871 17.42226891 -11.82177871 17.42226891 -15.8125 14.875 C-18.66352207 11.93758332 -18.84315355 11.13852666 -19.1875 6.9375 C-19.13622615 3.79840119 -18.85810363 2.72010641 -17.25 -0.125 C-11.13205596 -5.59894993 -6.5196868 -4.34645786 0 0 Z " transform="translate(362.875,341.25)" style="fill: #000000;"/><path d="M0 0 C9.57 0 19.14 0 29 0 C29 2.97 29 5.94 29 9 C19.43 9 9.86 9 0 9 C0 6.03 0 3.06 0 0 Z " transform="translate(124,43)" style="fill: #232F3E;"/><path d="M0 0 C9.57 0 19.14 0 29 0 C29 2.97 29 5.94 29 9 C19.43 9 9.86 9 0 9 C0 6.03 0 3.06 0 0 Z " transform="translate(78,43)" style="fill: #232F3E;"/><path d="M0 0 C9.57 0 19.14 0 29 0 C29 2.97 29 5.94 29 9 C19.43 9 9.86 9 0 9 C0 6.03 0 3.06 0 0 Z " transform="translate(32,43)" style="fill: #232F3E;"/></svg>